<svg width="14" height="10" viewBox="0 0 14 10" fill="none" xmlns="http://www.w3.org/2000/svg">
<path d="M14 1.5V8.49999C14 8.89781 13.842 9.27934 13.5607 9.56065C13.2794 9.84195 12.8978 9.99998 12.5 9.99998H1.5C1.10218 9.99998 0.720644 9.84195 0.43934 9.56065C0.158035 9.27934 0 8.89781 0 8.49999V1.5C0.00162218 1.329 0.0337948 1.15967 0.095 0.999999L6.17 5.04999C6.41597 5.21339 6.7047 5.30055 7 5.30055C7.2953 5.30055 7.58403 5.21339 7.83 5.04999L13.905 0.999999C13.9662 1.15967 13.9984 1.329 14 1.5ZM7.275 4.21499L13.275 0.215C13.0411 0.074122 12.7731 -0.000216845 12.5 4.75115e-07H1.5C1.22814 0.00219878 0.961987 0.0782422 0.73 0.22L6.73 4.21999C6.81159 4.27197 6.90651 4.29917 7.00324 4.29828C7.09998 4.29739 7.19438 4.26846 7.275 4.21499Z" fill="#9CB5F7"/>
</svg>
