<svg width="320" height="420" viewBox="0 0 320 420" fill="none" xmlns="http://www.w3.org/2000/svg">
<g clip-path="url(#clip0)">
<path d="M30.706 11.581C36.6718 7.57956 44.6716 9.53597 48.3465 14.9023C52.0213 20.2686 49.8449 29.168 44.4642 32.8161C39.0836 36.4643 30.0281 34.7461 26.4678 28.9114C23.378 23.1917 24.8548 15.1141 30.706 11.581Z" fill="#E5E5E5"/>
<path d="M-2.06106 31.3661C4.26076 27.9481 11.6754 30.2578 15.1212 36.5609C18.2109 42.2805 15.793 50.128 10.5269 53.3078C4.67563 56.8408 -3.79477 54.7693 -7.24051 48.4662C-10.2157 42.2782 -7.91231 34.8991 -2.06106 31.3661Z" fill="#E5E5E5"/>
<path d="M19.0591 65.3224C24.3252 62.1427 31.8544 63.984 34.5881 69.1202C37.7924 74.3714 35.7305 82.8024 30.1084 85.3987C24.3717 88.4634 16.4864 86.0386 13.8673 80.434C11.1336 75.2979 13.6784 68.9706 19.0591 65.3224Z" fill="#E5E5E5"/>
<path d="M68.2965 49.5654C71.8568 55.4001 70.024 62.8943 64.2873 65.959C59.1358 68.6703 52.0771 66.9441 48.4023 61.5778C44.842 55.7431 46.5602 48.7172 52.882 45.2993C58.1482 42.1195 64.7362 43.7307 68.2965 49.5654Z" fill="#E5E5E5"/>
<path d="M86.819 24.8074C92.5557 21.7427 98.6731 23.2388 102.348 28.6051C105.908 34.4399 104.076 41.9341 98.3388 44.9987C92.6021 48.0634 85.1874 45.7537 82.0977 40.034C79.4786 34.4295 81.5528 27.9871 86.819 24.8074Z" fill="#E5E5E5"/>
<path d="M-16.1631 86.9891C-10.8969 83.8093 -3.72373 85.0672 -0.519468 90.3184C2.79934 95.1013 0.966568 102.595 -3.94353 106.359C-8.73907 109.654 -16.2683 107.812 -19.5871 103.029C-22.6768 97.3097 -21.4292 90.1688 -16.1631 86.9891Z" fill="#E5E5E5"/>
<path d="M119.218 77.9033C113.952 81.0831 107.364 79.4719 104.63 74.3358C101.782 69.668 103.614 62.1738 108.295 59.3473C112.976 56.5209 120.506 58.3622 122.883 62.9149C126.088 68.1662 124.013 74.6085 119.218 77.9033Z" fill="#E5E5E5"/>
<path d="M69.6368 95.0656C66.7885 90.3979 69.0919 83.0187 73.7729 80.1923C78.4539 77.3659 85.9831 79.2072 88.2462 84.2283C90.9799 89.3644 89.4908 95.4535 84.2246 98.6332C79.4291 101.928 72.3704 100.202 69.6368 95.0656Z" fill="#E5E5E5"/>
<path d="M36.6411 115.788C33.3223 111.005 34.9259 104.447 39.7215 101.153C44.517 97.8577 51.1051 99.4689 54.4239 104.252C57.6281 109.503 56.6096 115.707 51.3435 118.887C46.5479 122.182 39.9599 120.571 36.6411 115.788Z" fill="#E5E5E5"/>
<path d="M141.533 39.6773C146.214 36.8509 153.272 38.5771 156.006 43.7133C158.854 48.3811 157.365 54.4701 152.684 57.2965C147.889 60.5914 141.186 59.4486 137.982 54.1974C135.133 49.5296 136.852 42.5038 141.533 39.6773Z" fill="#E5E5E5"/>
<path d="M19.5455 124.513C22.2792 129.649 20.6755 136.207 15.9945 139.033C10.8429 141.744 4.36938 139.665 1.52114 134.997C-0.856513 130.444 0.632622 124.355 5.31362 121.529C10.1092 118.234 16.2267 119.73 19.5455 124.513Z" fill="#E5E5E5"/>
<path d="M60.8413 135.109C65.0517 132.167 71.6398 133.779 74.488 138.446C76.9802 142.531 75.3766 149.088 70.6956 151.915C66.5997 154.388 60.4822 152.892 57.8754 149.276C55.0272 144.608 56.6309 138.05 60.8413 135.109Z" fill="#E5E5E5"/>
<path d="M125.979 107.355C123.131 102.688 124.735 96.1303 129.301 93.7722C133.867 91.4142 139.4 93.2635 141.892 97.3478C144.74 102.016 143.251 108.105 138.1 110.816C134.004 113.289 128.942 111.555 125.979 107.355Z" fill="#E5E5E5"/>
<path d="M94.6642 115.086C99.3452 112.259 105.348 114.224 108.082 119.36C110.459 123.912 109.199 129.065 104.518 131.891C99.952 134.249 94.7757 132.983 91.8129 128.784C88.4941 124.001 90.0977 117.444 94.6642 115.086Z" fill="#E5E5E5"/>
<path d="M26.9044 155.601C31.0003 153.128 37.0032 155.092 39.61 158.708C42.5727 162.907 40.4985 169.35 35.932 171.708C31.3656 174.066 25.7187 172.685 23.2265 168.601C20.6197 164.985 22.2234 158.427 26.9044 155.601Z" fill="#E5E5E5"/>
<path d="M162.538 74.1021C166.634 71.629 172.752 73.1251 175.358 76.741C178.321 80.9404 176.718 87.4978 172.037 90.3243C167.47 92.6823 162.294 91.4164 159.331 87.217C156.953 82.6643 158.442 76.5753 162.538 74.1021Z" fill="#E5E5E5"/>
<path d="M-6.67703 176.676C-2.58117 174.203 3.53631 175.699 6.02851 179.783C8.5207 183.867 7.14613 189.488 2.93572 192.43C-1.16015 194.903 -7.27763 193.407 -9.76983 189.322C-12.262 185.238 -10.7729 179.149 -6.67703 176.676Z" fill="#E5E5E5"/>
<path d="M196.946 53.7254C201.042 51.2523 207.045 53.2168 209.423 57.7694C211.8 62.3221 209.485 67.7126 205.389 70.1858C201.407 72.1905 195.875 70.3411 193.739 66.8403C190.891 62.1725 192.38 56.0835 196.946 53.7254Z" fill="#E5E5E5"/>
<path d="M115.199 149.395C118.825 146.807 124.471 148.188 127.193 151.335C129.8 154.951 128.896 160.687 125.27 163.275C121.53 166.332 115.298 165.304 112.806 161.22C110.199 157.604 111.574 151.983 115.199 149.395Z" fill="#E5E5E5"/>
<path d="M161.957 131.542C163.978 135.512 162.718 140.664 158.622 143.137C154.641 145.142 148.994 143.761 146.972 139.792C144.951 135.822 146.325 130.202 150.307 128.197C154.288 126.192 159.82 128.042 161.957 131.542Z" fill="#E5E5E5"/>
<path d="M93.1408 172.295C95.633 176.38 94.9581 181.179 91.2183 184.235C87.1224 186.709 82.3021 186.026 79.3393 181.827C76.8471 177.742 77.522 172.943 81.2619 169.887C85.3577 167.414 90.6486 168.211 93.1408 172.295Z" fill="#E5E5E5"/>
<path d="M47.3249 190.379C51.4208 187.906 56.4826 189.64 58.9749 193.724C60.9965 197.693 60.4361 202.024 56.3403 204.497C52.1298 207.439 47.424 206.288 44.4613 202.088C42.3251 198.588 43.6996 192.967 47.3249 190.379Z" fill="#E5E5E5"/>
<path d="M13.8581 210.985C17.4834 208.397 23.1304 209.778 25.6226 213.863C27.7588 217.363 26.4987 222.516 22.988 224.635C19.3627 227.224 14.6569 226.073 11.9356 222.925C9.32882 219.309 10.2328 213.574 13.8581 210.985Z" fill="#E5E5E5"/>
<path d="M183.659 108.059C187.64 106.054 192.816 107.32 194.838 111.289C197.33 115.373 195.714 119.942 191.148 122.3C187.166 124.305 182.931 123.269 180.439 119.185C178.659 116.267 180.033 110.647 183.659 108.059Z" fill="#E5E5E5"/>
<path d="M217.952 88.1502C221.348 86.4987 226.524 87.7647 228.661 91.2655C230.682 95.2347 228.952 100.272 224.97 102.277C221.104 103.813 216.512 102.194 214.961 98.3397C212.825 94.8388 214.441 90.27 217.952 88.1502Z" fill="#E5E5E5"/>
<path d="M101.045 215.43C98.7942 212.398 100.169 206.777 103.68 204.657C106.605 202.891 111.425 203.573 113.676 206.605C116.397 209.753 115.608 215.02 111.983 217.609C108.472 219.728 103.181 218.931 101.045 215.43Z" fill="#E5E5E5"/>
<path d="M252.245 68.242C255.756 66.1222 260.462 67.273 262.483 71.2422C264.619 74.7431 263.589 78.9586 260.548 81.1935C256.923 83.7817 252.688 82.746 250.081 79.13C247.589 75.0457 248.734 70.3619 252.245 68.242Z" fill="#E5E5E5"/>
<path d="M171.439 164.142C174.48 161.907 178.829 162.474 181.551 165.622C184.157 169.238 183.482 174.037 180.442 176.272C177.402 178.507 173.052 177.939 170.331 174.792C167.139 171.529 167.814 166.73 171.439 164.142Z" fill="#E5E5E5"/>
<path d="M147.27 187.519C149.762 191.603 148.731 195.819 144.75 197.823C141.354 199.475 137.118 198.439 134.982 194.938C132.846 191.438 134.106 186.285 137.502 184.634C141.013 182.514 145.134 184.018 147.27 187.519Z" fill="#E5E5E5"/>
<path d="M69.0426 225.97C72.4388 224.319 77.2592 225.001 79.0393 227.919C81.1755 231.42 79.9154 236.572 76.4047 238.692C72.894 240.812 67.3616 238.962 65.696 235.576C64.501 232.306 66.117 227.737 69.0426 225.97Z" fill="#E5E5E5"/>
<path d="M206.432 143.412C209.829 141.761 214.42 143.38 215.615 146.651C216.81 149.921 215.664 154.605 212.268 156.257C208.757 158.376 203.81 156.174 202.259 152.32C201.064 149.049 202.922 145.532 206.432 143.412Z" fill="#E5E5E5"/>
<path d="M35.5759 246.577C39.0866 244.457 43.3218 245.493 44.9874 248.879C47.1236 252.38 46.0927 256.595 42.5819 258.715C39.6563 260.482 34.9505 259.331 32.6998 256.298C31.5047 253.028 32.5357 248.812 35.5759 246.577Z" fill="#E5E5E5"/>
<path d="M248.496 126.397C250.276 129.314 249.36 133.061 246.79 135.411C244.221 137.761 239.044 136.496 236.794 133.463C235.013 130.546 235.93 126.799 238.499 124.449C241.54 122.214 246.36 122.896 248.496 126.397Z" fill="#E5E5E5"/>
<path d="M158.037 218.943C160.963 217.177 165.083 218.681 166.978 221.13C169.229 224.162 167.613 228.731 164.217 230.383C161.406 231.681 156.7 230.53 155.505 227.259C154.195 224.457 155.697 220.357 158.037 218.943Z" fill="#E5E5E5"/>
<path d="M11.5209 269.486C13.6571 272.986 12.6261 277.202 9.22994 278.853C6.41887 280.152 2.65424 279.231 0.403524 276.198C-1.73265 272.698 -0.816267 268.951 2.69448 266.831C6.09068 265.179 9.38472 265.985 11.5209 269.486Z" fill="#E5E5E5"/>
<path d="M56.1109 280.887C59.0366 279.121 63.3863 279.688 65.1665 282.605C66.9466 285.523 65.9157 289.738 62.9901 291.505C60.6496 292.918 56.8849 291.997 54.8757 290.017C52.625 286.984 53.6559 282.769 56.1109 280.887Z" fill="#E5E5E5"/>
<path d="M274.078 103.365C276.889 102.067 281.124 103.103 282.904 106.02C284.214 108.822 282.712 112.923 279.901 114.221C277.09 115.519 273.325 114.599 271.901 112.265C270.121 109.347 271.152 105.132 274.078 103.365Z" fill="#E5E5E5"/>
<path d="M124.214 238.967C127.14 237.2 131.261 238.704 133.041 241.622C134.821 244.539 133.79 248.755 130.864 250.521C127.939 252.288 124.174 251.367 122.038 247.866C120.728 245.064 121.759 240.848 124.214 238.967Z" fill="#E5E5E5"/>
<path d="M90.1629 259.927C93.0886 258.16 97.2092 259.665 98.9894 262.582C100.77 265.499 99.7386 269.715 96.813 271.481C93.8873 273.248 89.6521 272.212 87.9865 268.826C86.2064 265.909 87.2373 261.693 90.1629 259.927Z" fill="#E5E5E5"/>
<path d="M189.798 207.351C188.018 204.434 189.049 200.218 191.86 198.92C194.671 197.622 197.965 198.428 199.86 200.877C202.11 203.909 201.194 207.656 198.268 209.423C195.813 211.304 191.578 210.269 189.798 207.351Z" fill="#E5E5E5"/>
<path d="M224.32 186.506C222.896 184.172 223.698 180.893 226.153 179.012C229.079 177.245 232.958 177.698 234.624 181.083C235.933 183.886 235.131 187.164 232.676 189.046C230.336 190.459 226.101 189.423 224.32 186.506Z" fill="#E5E5E5"/>
<path d="M307.9 83.3421C310.241 81.9288 314.005 82.8495 315.9 85.2985C317.795 87.7474 316.878 91.4945 314.538 92.9078C311.612 94.6743 307.377 93.6385 306.067 90.8363C304.173 88.3873 305.56 84.7553 307.9 83.3421Z" fill="#E5E5E5"/>
<path d="M21.6382 309.687C19.7435 307.238 20.5454 303.959 22.5298 301.962C24.9849 300.081 28.3934 300.418 30.4027 302.398C32.768 304.962 32.2076 309.293 29.282 311.06C27.4121 312.588 23.5329 312.136 21.6382 309.687Z" fill="#E5E5E5"/>
<path d="M145.805 273.038C148.617 271.74 151.796 273.014 153.106 275.816C154.415 278.619 153.143 281.782 150.802 283.196C147.991 284.494 144.341 283.105 143.388 280.886C142.078 278.084 142.994 274.336 145.805 273.038Z" fill="#E5E5E5"/>
<path d="M220.395 235.186C221.704 237.989 220.432 241.152 218.092 242.566C215.866 243.51 212.572 242.705 211.033 240.839C209.609 238.505 210.055 234.643 212.866 233.345C214.85 231.348 218.971 232.853 220.395 235.186Z" fill="#E5E5E5"/>
<path d="M111.754 293.999C114.45 293.169 118.1 294.558 118.939 297.245C119.778 299.932 118.506 303.096 115.695 304.394C112.884 305.692 109.348 303.835 108.509 301.148C107.785 297.992 109.057 294.828 111.754 293.999Z" fill="#E5E5E5"/>
<path d="M184.739 262.704C182.284 264.585 178.99 263.78 177.21 260.862C175.315 258.413 176.232 254.666 178.572 253.253C180.913 251.84 184.677 252.761 186.102 255.094C187.996 257.543 187.665 260.937 184.739 262.704Z" fill="#E5E5E5"/>
<path d="M258.372 165.546C257.063 162.744 257.865 159.465 260.676 158.167C263.487 156.869 266.666 158.143 267.976 160.945C269.285 163.747 267.898 167.379 265.672 168.324C262.861 169.622 259.682 168.348 258.372 165.546Z" fill="#E5E5E5"/>
<path d="M75.869 322.453C73.9743 320.004 74.8907 316.257 77.2312 314.843C79.5717 313.43 82.8657 314.236 84.2898 316.57C86.1845 319.019 85.2681 322.766 82.4571 324.064C80.5871 325.592 77.7637 324.902 75.869 322.453Z" fill="#E5E5E5"/>
<path d="M293.721 145.399C292.297 143.066 292.514 140.14 294.854 138.727C296.839 136.73 299.662 137.421 301.557 139.87C302.981 142.204 302.764 145.129 300.424 146.542C298.083 147.955 295.26 147.265 293.721 145.399Z" fill="#E5E5E5"/>
<path d="M246.14 219.641C244.716 217.307 244.933 214.382 247.388 212.5C249.258 210.972 253.023 211.892 254.561 213.758C255.515 215.977 255.069 219.839 252.728 221.252C250.859 222.78 247.565 221.975 246.14 219.641Z" fill="#E5E5E5"/>
<path d="M42.1611 342.008C40.737 339.674 42.0094 336.51 44.3499 335.097C46.6904 333.684 49.8699 334.958 51.4085 336.823C52.3621 339.042 51.5602 342.321 49.2197 343.734C46.8792 345.147 43.5852 344.342 42.1611 342.008Z" fill="#E5E5E5"/>
<path d="M166.938 308.983C169.278 307.57 172.572 308.376 173.526 310.595C174.48 312.813 173.678 316.092 171.452 317.037C169.226 317.982 167.344 317.521 165.805 315.656C163.91 313.207 164.597 310.397 166.938 308.983Z" fill="#E5E5E5"/>
<path d="M133.001 329.475C135.341 328.062 138.521 329.336 139.36 332.023C140.199 334.71 139.041 337.405 136.344 338.235C134.118 339.18 131.88 338.136 130.926 335.917C129.502 333.583 130.19 330.773 133.001 329.475Z" fill="#E5E5E5"/>
<path d="M14.6971 364.579C10.9449 365.647 8.1214 364.956 7.51151 361.332C7.27002 360.281 8.31334 358.054 8.89847 357.7C10.0687 356.994 12.6507 356.632 13.9479 357.446C17.4834 359.304 16.7961 362.114 14.6971 364.579Z" fill="#E5E5E5"/>
<path d="M66.1822 370.22C68.4082 369.275 70.6465 370.319 71.6 372.538C72.1975 374.173 72.2099 376.162 70.34 377.69C68.5846 378.75 65.7612 378.06 64.6931 376.309C63.269 373.975 63.9563 371.165 66.1822 370.22Z" fill="#E5E5E5"/>
<path d="M157.886 364.352C159.666 367.27 158.623 369.497 156.867 370.556C154.756 371.033 153.344 370.688 152.276 368.937C151.208 367.187 151.895 364.376 154.007 363.9C155.177 363.193 156.945 364.122 157.886 364.352Z" fill="#E5E5E5"/>
<path d="M273.455 248.659C275.35 251.108 274.663 253.918 272.907 254.978C271.267 255.57 269.27 255.578 268.202 253.827C266.663 251.962 267.35 249.152 269.462 248.675C270.747 247.5 272.514 248.429 273.455 248.659Z" fill="#E5E5E5"/>
<path d="M187.473 343.293C190.284 341.995 192.993 343.154 193.476 345.257C193.959 347.361 193.615 348.766 191.389 349.711C189.164 350.656 186.455 349.497 186.442 347.508C185.845 345.873 187.244 344.23 187.473 343.293Z" fill="#E5E5E5"/>
</g>
<defs>
<clipPath id="clip0">
<rect width="352" height="327" fill="white" transform="translate(319.259 77.6812) rotate(103.742)"/>
</clipPath>
</defs>
</svg>
