<svg width="362" height="340" viewBox="0 0 362 340" fill="none" xmlns="http://www.w3.org/2000/svg">
<g clip-path="url(#clip0)">
<path d="M380.486 345.827C378.46 352.007 373.006 355.156 366.641 353.82C360.034 352.066 356.177 345.385 358.202 339.205C360.228 333.024 367.182 329.566 373.369 331.562C379.136 333.8 382.092 339.889 380.486 345.827Z" fill="#E5E5E5" fill-opacity="0.3"/>
<path d="M320.367 329.868C321.973 323.93 327.847 320.539 333.373 322.359C338.658 323.762 342.516 330.444 341.088 335.722C339.661 341.001 332.948 344.876 328.082 343.231C322.137 341.653 319.181 335.564 320.367 329.868Z" fill="#E5E5E5" fill-opacity="0.3"/>
<path d="M344.321 283.188C349.606 284.591 353.044 291.515 351.617 296.793C350.189 302.072 343.477 305.947 338.37 303.885C332.844 302.064 329.709 296.635 331.315 290.697C332.502 285.001 338.795 281.368 344.321 283.188Z" fill="#E5E5E5" fill-opacity="0.3"/>
<path d="M353.832 245.404C359.536 246.564 362.912 252.411 361.725 258.107C360.539 263.803 354.665 267.194 348.961 266.033C343.015 264.455 339.461 259.268 341.067 253.33C342.254 247.634 348.127 244.243 353.832 245.404Z" fill="#E5E5E5" fill-opacity="0.3"/>
<path d="M360.149 227.28C354.623 225.459 351.248 219.613 352.675 214.334C354.523 208.814 360.637 205.84 365.922 207.243C370.788 208.888 373.922 214.317 372.495 219.595C371.308 225.292 365.854 228.44 360.149 227.28Z" fill="#E5E5E5" fill-opacity="0.3"/>
<path d="M370.499 189.01C365.214 187.607 361.839 181.761 363.267 176.483C364.694 171.204 370.568 167.813 376.755 169.809C382.281 171.629 384.754 176.883 383.327 182.161C381.06 187.924 375.365 190.655 370.499 189.01Z" fill="#E5E5E5" fill-opacity="0.3"/>
<path d="M322.989 248.177C321.981 253.214 316.107 256.605 310.822 255.202C306.198 253.974 302.822 248.128 304.25 242.849C305.499 238.231 310.953 235.082 315.337 235.892C320.622 237.295 323.997 243.141 322.989 248.177Z" fill="#E5E5E5" fill-opacity="0.3"/>
<path d="M295.119 313.266C300.404 314.668 303.779 320.515 302.111 325.376C300.442 330.237 295.167 332.726 290.542 331.498C285.257 330.095 282.123 324.666 283.97 319.146C285.219 314.527 290.075 312.28 295.119 313.266Z" fill="#E5E5E5" fill-opacity="0.3"/>
<path d="M312.398 286.029C310.97 291.307 305.275 294.039 299.749 292.218C294.883 290.573 292.231 285.98 293.659 280.701C295.328 275.84 299.943 273.176 304.987 274.161C310.691 275.322 314.067 281.168 312.398 286.029Z" fill="#E5E5E5" fill-opacity="0.3"/>
<path d="M333.339 209.909C332.089 214.527 326.394 217.259 322.011 216.449C316.967 215.463 314.011 209.375 315.68 204.514C317.349 199.653 322.383 196.746 327.007 197.974C331.391 198.784 334.766 204.63 333.339 209.909Z" fill="#E5E5E5" fill-opacity="0.3"/>
<path d="M343.028 171.464C341.779 176.082 336.325 179.231 331.7 178.004C327.076 176.776 324.183 171.765 325.191 166.729C326.44 162.11 331.894 158.961 336.518 160.189C341.143 161.416 344.277 166.845 343.028 171.464Z" fill="#E5E5E5" fill-opacity="0.3"/>
<path d="M273.84 275.44C273.01 279.816 267.976 282.723 263.834 282.331C259.45 281.521 256.137 276.752 256.967 272.375C257.556 267.581 262.768 264.015 267.393 265.242C271.776 266.052 274.669 271.064 273.84 275.44Z" fill="#E5E5E5" fill-opacity="0.3"/>
<path d="M252.404 320.667C248.199 319.197 245.547 314.603 246.796 309.985C248.286 305.784 253.32 302.877 257.525 304.347C261.73 305.817 264.623 310.828 263.133 315.029C261.643 319.23 256.367 321.719 252.404 320.667Z" fill="#E5E5E5" fill-opacity="0.3"/>
<path d="M352.958 133.437C352.129 137.813 346.853 140.302 342.47 139.492C337.845 138.265 335.015 134.331 335.603 129.537C336.611 124.501 341.646 121.594 346.511 123.239C351.136 124.467 354.207 128.818 352.958 133.437Z" fill="#E5E5E5" fill-opacity="0.3"/>
<path d="M273.942 243.644C269.318 242.416 266.488 238.483 267.076 233.689C268.325 229.07 272.279 226.23 277.323 227.215C281.948 228.443 284.778 232.377 284.19 237.171C282.941 241.789 278.567 244.872 273.942 243.644Z" fill="#E5E5E5" fill-opacity="0.3"/>
<path d="M294.54 198.902C293.29 203.521 288.434 205.767 283.81 204.54C279.605 203.07 277.016 199.554 278.265 194.935C279.273 189.899 283.468 187.477 288.512 188.462C292.476 189.514 295.369 194.525 294.54 198.902Z" fill="#E5E5E5" fill-opacity="0.3"/>
<path d="M304.47 160.875C303.64 165.251 298.606 168.158 293.981 166.931C290.018 165.878 287.366 161.285 288.436 157.326C289.266 152.949 293.461 150.527 297.604 150.92C301.987 151.73 305.3 156.498 304.47 160.875Z" fill="#E5E5E5" fill-opacity="0.3"/>
<path d="M252.962 352.638C251.472 356.839 246.857 359.504 242.652 358.034C238.027 356.806 236.036 352.388 237.705 347.527C239.195 343.326 242.971 341.146 247.595 342.374C250.898 343.251 253.791 348.262 252.962 352.638Z" fill="#E5E5E5" fill-opacity="0.3"/>
<path d="M308.436 113.486C312.399 114.538 315.051 119.131 313.981 123.09C312.91 127.049 308.295 129.713 304.331 128.661C300.368 127.609 297.716 123.016 298.786 119.057C299.857 115.098 304.472 112.433 308.436 113.486Z" fill="#E5E5E5" fill-opacity="0.3"/>
<path d="M238.408 217.946C242.131 218.581 245.024 223.592 243.954 227.551C243.061 230.85 239.107 233.69 235.384 233.055C231.242 232.663 228.17 228.312 229 223.935C230.071 219.976 234.445 216.894 238.408 217.946Z" fill="#E5E5E5" fill-opacity="0.3"/>
<path d="M223.013 303.671C222.362 307.388 218.827 309.986 214.685 309.593C210.301 308.783 207.471 304.85 208.122 301.133C208.773 297.416 212.308 294.819 216.45 295.211C221.012 295.361 223.842 299.295 223.013 303.671Z" fill="#E5E5E5" fill-opacity="0.3"/>
<path d="M224.311 270.071C219.687 268.844 217.517 265.086 219.007 260.885C220.319 257.343 224.095 255.163 228.058 256.215C232.022 257.268 234.674 261.861 233.362 265.402C232.292 269.361 228.275 271.124 224.311 270.071Z" fill="#E5E5E5" fill-opacity="0.3"/>
<path d="M254.241 188.204C252.929 191.746 248.975 194.586 245.671 193.709C241.708 192.656 239.056 188.063 240.126 184.104C241.197 180.145 246.472 177.656 250.017 178.951C253.142 180.487 255.133 184.905 254.241 188.204Z" fill="#E5E5E5" fill-opacity="0.3"/>
<path d="M212.065 342.843C210.753 346.384 206.317 348.389 203.192 346.852C200.067 345.315 197.656 341.14 198.968 337.598C200.039 333.639 205.136 331.81 208.921 333.522C212.046 335.059 213.136 338.884 212.065 342.843Z" fill="#E5E5E5" fill-opacity="0.3"/>
<path d="M323.848 83.986C322.537 87.5273 319.002 90.1249 315.699 89.248C311.735 88.1958 309.502 83.3601 310.814 79.8188C312.126 76.2775 316.562 74.2729 319.866 75.1497C322.749 76.2688 324.499 80.2693 323.848 83.986Z" fill="#E5E5E5" fill-opacity="0.3"/>
<path d="M264.171 150.177C263.1 154.136 259.325 156.316 255.78 155.022C251.816 153.97 249.647 150.211 250.717 146.252C251.61 142.953 255.805 140.531 259.528 141.166C262.652 142.702 264.822 146.461 264.171 150.177Z" fill="#E5E5E5" fill-opacity="0.3"/>
<path d="M194.805 254.814C193.912 258.113 189.895 259.875 186.833 259.416C183.111 258.781 181.119 254.363 182.431 250.822C183.564 247.94 187.76 245.518 190.884 247.055C193.768 248.174 195.518 252.174 194.805 254.814Z" fill="#E5E5E5" fill-opacity="0.3"/>
<path d="M265.71 116.995C261.747 115.943 259.577 112.185 260.889 108.643C262.022 105.762 265.378 103.824 269.101 104.459C273.065 105.511 274.994 108.852 273.923 112.81C272.611 116.352 269.674 118.047 265.71 116.995Z" fill="#E5E5E5" fill-opacity="0.3"/>
<path d="M225.613 139.589C224.721 142.888 221.186 145.485 217.883 144.608C214.58 143.732 212.41 139.973 213.302 136.674C214.016 134.035 217.372 132.097 220.193 132.139C223.916 132.773 226.086 136.532 225.613 139.589Z" fill="#E5E5E5" fill-opacity="0.3"/>
<path d="M205.396 216.962C204.503 220.261 200.486 222.023 197.183 221.147C193.88 220.27 191.71 216.511 192.602 213.212C193.495 209.913 196.851 207.975 200.815 209.028C203.698 210.147 205.868 213.905 205.396 216.962Z" fill="#E5E5E5" fill-opacity="0.3"/>
<path d="M215.504 178.275C214.612 181.574 210.595 183.337 207.292 182.46C203.989 181.583 201.819 177.825 202.711 174.526C203.603 171.227 207.379 169.047 210.923 170.341C214.227 171.218 216.396 174.976 215.504 178.275Z" fill="#E5E5E5" fill-opacity="0.3"/>
<path d="M279.87 65.9472C283.174 66.824 284.924 70.8246 283.791 73.706C282.657 76.5875 279.06 78.1077 275.757 77.2309C272.873 76.1118 271.185 73.1886 272.319 70.3072C273.211 67.0081 276.567 65.0703 279.87 65.9472Z" fill="#E5E5E5" fill-opacity="0.3"/>
<path d="M179.874 285.148C183.177 286.025 185.347 289.784 184.214 292.665C183.08 295.547 180.144 297.242 177.081 296.783C173.359 296.148 171.43 292.808 172.322 289.508C172.795 286.452 176.571 284.272 179.874 285.148Z" fill="#E5E5E5" fill-opacity="0.3"/>
<path d="M169.346 324.077C171.988 324.779 173.676 327.702 173.203 330.759C172.311 334.058 169.196 336.413 165.651 335.119C162.768 334 161.08 331.077 161.553 328.02C162.267 325.38 166.042 323.2 169.346 324.077Z" fill="#E5E5E5" fill-opacity="0.3"/>
<path d="M230.606 94.9469C233.668 95.4062 235.355 98.3293 235.302 101.144C234.83 104.201 232.134 106.314 229.313 106.272C225.831 106.055 223.242 102.539 224.134 99.2401C224.428 96.843 227.543 94.4877 230.606 94.9469Z" fill="#E5E5E5" fill-opacity="0.3"/>
<path d="M166.239 207.275C165.106 210.157 161.928 211.435 159.045 210.315C156.161 209.196 154.893 206.031 155.607 203.392C156.74 200.51 160.337 198.99 162.56 199.934C165.444 201.053 167.373 204.394 166.239 207.275Z" fill="#E5E5E5" fill-opacity="0.3"/>
<path d="M138.523 286.194C135.64 285.075 134.372 281.909 135.085 279.27C136.04 277.049 138.977 275.353 141.378 275.637C144.021 276.338 146.369 279.437 145.236 282.318C145.183 285.133 141.166 286.895 138.523 286.194Z" fill="#E5E5E5" fill-opacity="0.3"/>
<path d="M245.054 63.7771C243.921 66.6585 240.323 68.1787 237.859 66.8175C235.636 65.8738 234.368 62.7084 234.662 60.3114C235.376 57.6721 239.152 55.4921 241.616 56.8534C244.678 57.3127 246.187 60.8956 245.054 63.7771Z" fill="#E5E5E5" fill-opacity="0.3"/>
<path d="M176.348 168.588C174.974 171.052 171.376 172.572 168.912 171.211C166.448 169.85 165.18 166.685 166.313 163.803C167.447 160.922 171.285 159.819 173.749 161.18C176.454 162.959 177.722 166.125 176.348 168.588Z" fill="#E5E5E5" fill-opacity="0.3"/>
<path d="M290.283 28.7556C293.166 29.8747 294.854 32.7978 293.721 35.6793C292.587 38.5608 289.409 39.8387 286.767 39.1373C283.883 38.0182 282.196 35.0951 283.329 32.2136C284.043 29.5744 286.979 27.8788 290.283 28.7556Z" fill="#E5E5E5" fill-opacity="0.3"/>
<path d="M145.257 241.661C145.73 238.604 148.666 236.908 151.97 237.785C155.032 238.245 156.96 241.585 156.247 244.225C155.533 246.864 152.176 248.802 149.534 248.1C146.472 247.641 144.365 244.96 145.257 241.661Z" fill="#E5E5E5" fill-opacity="0.3"/>
<path d="M182.6 123.22C185.662 123.679 187.59 127.02 186.877 129.659C186.163 132.299 183.226 133.994 180.584 133.293C177.521 132.833 175.593 129.493 176.726 126.611C177.02 124.214 179.537 122.761 182.6 123.22Z" fill="#E5E5E5" fill-opacity="0.3"/>
<path d="M130.672 315.226C133.314 315.927 135.18 318.191 134.708 321.247C134.413 323.644 131.057 325.582 128.656 325.298C126.433 324.355 124.084 321.256 124.798 318.617C125.092 316.22 128.029 314.524 130.672 315.226Z" fill="#E5E5E5" fill-opacity="0.3"/>
<path d="M193.431 85.7863C196.074 86.4878 197.342 89.6531 196.628 92.2924C195.915 94.9316 192.737 96.2096 190.335 95.9257C188.112 94.982 186.424 92.0589 187.138 89.4196C187.852 86.7804 190.789 85.0848 193.431 85.7863Z" fill="#E5E5E5" fill-opacity="0.3"/>
<path d="M126.119 195.918C125.405 198.557 122.469 200.253 120.246 199.309C118.023 198.365 116.335 195.442 117.29 193.22C118.245 190.999 119.923 190.03 122.324 190.314C125.386 190.773 126.833 193.278 126.119 195.918Z" fill="#E5E5E5" fill-opacity="0.3"/>
<path d="M136.469 157.649C135.755 160.288 132.577 161.566 130.113 160.205C127.649 158.843 126.622 156.096 127.997 153.632C128.951 151.41 131.29 150.617 133.513 151.56C136.156 152.262 137.602 154.767 136.469 157.649Z" fill="#E5E5E5" fill-opacity="0.3"/>
<path d="M254.743 25.3324C253.788 27.5541 250.611 28.8321 248.387 27.8884C246.164 26.9447 245.379 24.6145 246.333 22.3928C247.288 20.1712 249.386 18.9601 251.368 19.4862C254.01 20.1876 255.698 23.1108 254.743 25.3324Z" fill="#E5E5E5" fill-opacity="0.3"/>
<path d="M197.667 50.4905C199.639 47.1246 202.156 45.6712 205.103 47.8677C206.004 48.4607 206.79 50.7909 206.612 51.4507C206.255 52.7703 204.64 54.8166 203.14 55.1257C199.301 56.2283 197.855 53.7227 197.667 50.4905Z" fill="#E5E5E5" fill-opacity="0.3"/>
<path d="M156.57 82.0125C155.616 84.2342 153.277 85.0277 151.054 84.084C149.491 83.3157 148.107 81.8875 148.402 79.4905C148.937 77.5111 151.454 76.0577 153.436 76.5838C156.079 77.2853 157.525 79.7908 156.57 82.0125Z" fill="#E5E5E5" fill-opacity="0.3"/>
<path d="M94.376 149.657C91.0728 148.781 90.2869 146.45 90.8222 144.471C92.0182 142.667 93.2768 141.94 95.2587 142.466C97.2406 142.992 98.6872 145.498 97.4912 147.302C97.1344 148.622 95.2151 149.173 94.376 149.657Z" fill="#E5E5E5" fill-opacity="0.3"/>
<path d="M90.8742 313.147C87.8121 312.688 86.3655 310.183 86.9008 308.203C87.6773 306.641 89.1143 305.255 91.0962 305.781C93.4977 306.065 94.9443 308.57 93.7483 310.374C93.6325 312.112 91.7132 312.663 90.8742 313.147Z" fill="#E5E5E5" fill-opacity="0.3"/>
<path d="M87.561 185.329C86.4277 188.21 83.6693 189.246 81.8659 188.06C80.0624 186.874 79.3391 185.622 80.294 183.4C81.2489 181.178 84.0072 180.142 85.3911 181.571C86.9535 182.339 87.0788 184.494 87.561 185.329Z" fill="#E5E5E5" fill-opacity="0.3"/>
</g>
<defs>
<clipPath id="clip0">
<rect width="352" height="327" fill="white" transform="translate(176 468.341) rotate(-120)"/>
</clipPath>
</defs>
</svg>
