<svg width="32" height="32" viewBox="0 0 32 32" fill="none" xmlns="http://www.w3.org/2000/svg">
<path d="M11.3791 6.62679C11.102 6.62069 10.8299 6.70101 10.6007 6.8567C10.3714 7.01239 10.1963 7.23576 10.0998 7.49554C10.0033 7.75533 9.99009 8.0387 10.0621 8.30632C10.1341 8.57395 10.2877 8.81238 10.5015 8.98868L18.6604 15.9783L10.5015 22.9654C10.3536 23.0741 10.2297 23.2121 10.1376 23.3709C10.0455 23.5297 9.98724 23.7059 9.96638 23.8883C9.94551 24.0706 9.96253 24.2553 10.0164 24.4308C10.0702 24.6063 10.1597 24.7689 10.2792 24.9082C10.3988 25.0475 10.5458 25.1605 10.7111 25.2404C10.8764 25.3202 11.0564 25.3651 11.2398 25.3722C11.4232 25.3793 11.6061 25.3485 11.7771 25.2816C11.948 25.2147 12.1033 25.1132 12.2333 24.9835L21.5744 16.9913C21.7211 16.8661 21.8389 16.7107 21.9197 16.5356C22.0005 16.3605 22.0423 16.1699 22.0423 15.977C22.0423 15.7842 22.0005 15.5936 21.9197 15.4185C21.8389 15.2433 21.7211 15.0878 21.5744 14.9626L12.2333 6.96266C11.9973 6.75307 11.6946 6.63391 11.3791 6.62648V6.62679Z" fill="#C4C4C4"/>
</svg>
