<svg width="32" height="32" viewBox="0 0 32 32" fill="none" xmlns="http://www.w3.org/2000/svg"><path d="M20.6209 25.3732C20.898 25.3793 21.1701 25.299 21.3993 25.1433C21.6286 24.9876 21.8037 24.7642 21.9002 24.5045C21.9967 24.2447 22.0099 23.9613 21.9379 23.6937C21.8659 23.4261 21.7123 23.1876 21.4985 23.0113L13.3396 16.0217L21.4985 9.03463C21.6464 8.92592 21.7703 8.7879 21.8624 8.62909C21.9545 8.47028 22.0128 8.29413 22.0336 8.11174C22.0545 7.92936 22.0375 7.74468 21.9836 7.56918C21.9298 7.39367 21.8403 7.23113 21.7208 7.09181C21.6012 6.9525 21.4542 6.83949 21.2889 6.75963C21.1236 6.67977 20.9436 6.63491 20.7602 6.62783C20.5768 6.62075 20.3939 6.65152 20.2229 6.71841C20.052 6.7853 19.8967 6.88677 19.7667 7.01646L10.4256 15.0087C10.2789 15.1339 10.1611 15.2893 10.0803 15.4644C9.99953 15.6395 9.95771 15.8301 9.95771 16.023C9.95771 16.2158 9.99953 16.4064 10.0803 16.5815C10.1611 16.7567 10.2789 16.9122 10.4256 17.0374L19.7667 25.0373C20.0027 25.2469 20.3054 25.3661 20.6209 25.3735L20.6209 25.3732Z" fill="#C4C4C4"/></svg>
